<svg width="24" height="21" viewBox="0 0 24 21" fill="none" xmlns="http://www.w3.org/2000/svg">
<path d="M15.135 6.31024V9.75784L2.85407 9.75784C2.62756 9.75784 2.41032 9.83658 2.25015 9.97673C2.08998 10.1169 2 10.307 2 10.5052C2 10.7034 2.08998 10.8934 2.25015 11.0336C2.41032 11.1737 2.62756 11.2525 2.85407 11.2525L15.135 11.2525V14.6901C15.1337 14.7841 15.1648 14.8763 15.2243 14.9546C15.2837 15.033 15.3687 15.0939 15.4682 15.1293C15.5678 15.1648 15.6772 15.1732 15.7822 15.1536C15.8873 15.1339 15.9832 15.087 16.0574 15.0189L21.8402 10.834C21.8908 10.7904 21.931 10.7384 21.9584 10.6811C21.9859 10.6238 22 10.5623 22 10.5002C22 10.438 21.9859 10.3765 21.9584 10.3192C21.931 10.2619 21.8908 10.21 21.8402 10.1664L16.0574 5.98142C15.9832 5.9134 15.8873 5.86649 15.7822 5.8468C15.6772 5.8271 15.5678 5.83555 15.4682 5.87102C15.3687 5.9065 15.2837 5.96737 15.2243 6.04571C15.1648 6.12404 15.1337 6.21622 15.135 6.31024Z" fill="black"/>
</svg>
