<svg width="77" height="72" viewBox="0 0 77 72" fill="none" xmlns="http://www.w3.org/2000/svg">
<path fill-rule="evenodd" clip-rule="evenodd" d="M32.4842 15.2169L29.4497 22.8849C28.5967 25.0404 26.7792 26.74 24.474 27.5376L16.2735 30.375L24.474 33.2124C26.7792 34.01 28.5967 35.7095 29.4497 37.8651L32.4842 45.533L35.5187 37.8651C36.3717 35.7095 38.1892 34.01 40.4944 33.2124L48.6949 30.375L40.4944 27.5376C38.1892 26.74 36.3717 25.0405 35.5187 22.8849L32.4842 15.2169ZM35.8693 10.8039C34.7065 7.8656 30.2619 7.86561 29.0991 10.8039L24.9363 21.3232C24.5708 22.247 23.7918 22.9754 22.8039 23.3172L11.5541 27.2097C8.41167 28.297 8.41167 32.453 11.5541 33.5402L22.8039 37.4327C23.7918 37.7746 24.5708 38.5029 24.9363 39.4267L29.0991 49.946C30.2619 52.8844 34.7065 52.8844 35.8693 49.946L40.0321 39.4267C40.3976 38.5029 41.1766 37.7746 42.1645 37.4327L53.4143 33.5402C56.5567 32.453 56.5567 28.297 53.4143 27.2097L42.1645 23.3172C41.1766 22.9754 40.3976 22.247 40.0321 21.3232L35.8693 10.8039Z" fill="#0D00FF"/>
<path fill-rule="evenodd" clip-rule="evenodd" d="M56.5462 45.7253L55.441 48.5183C54.8317 50.0579 53.5334 51.2719 51.8868 51.8416L48.8999 52.8751L51.8868 53.9086C53.5334 54.4783 54.8317 55.6923 55.441 57.2319L56.5462 60.0249L57.6515 57.2319C58.2608 55.6923 59.559 54.4783 61.2056 53.9086L64.1925 52.8751L61.2056 51.8416C59.559 51.2719 58.2608 50.0579 57.6515 48.5183L56.5462 45.7253ZM58.8029 41.7027C58.0277 39.7438 55.0647 39.7438 54.2895 41.7027L52.0559 47.347C51.8122 47.9629 51.2929 48.4485 50.6343 48.6764L44.598 50.7649C42.5031 51.4898 42.5031 54.2604 44.598 54.9853L50.6343 57.0738C51.2929 57.3017 51.8122 57.7873 52.0559 58.4032L54.2895 64.0475C55.0647 66.0063 58.0277 66.0063 58.8029 64.0475L61.0366 58.4032C61.2803 57.7873 61.7996 57.3017 62.4582 57.0738L68.4945 54.9853C70.5894 54.2604 70.5894 51.4898 68.4945 50.7649L62.4582 48.6764C61.7996 48.4485 61.2803 47.9629 61.0366 47.347L58.8029 41.7027Z" fill="#0D00FF"/>
</svg>
