<svg width="170" height="172" viewBox="0 0 170 172" fill="none" xmlns="http://www.w3.org/2000/svg">
<g filter="url(#filter0_d_37_64)">
<path d="M152.518 35.6428C144.456 27.7794 132.957 29.2225 125.558 32.8471C123.392 33.9084 121.411 35.3598 119.721 37.1221C102.626 54.9565 85.6427 67.9991 73.1118 76.4948C71.0653 75.3391 68.6821 74.2979 65.9785 73.3817C58.7799 70.9409 53.2052 70.734 47.9027 72.7107C42.8412 74.5975 38.7066 78.3581 36.3316 83.0316C33.5869 86.9798 23.647 99.7949 15.0465 110.546C10.4657 116.272 9.50583 128.177 15.8102 134.326L21.0796 139.465C24.8173 143.111 30.3787 146.695 35.711 147.629C40.8938 148.537 47.1941 147.666 55.2836 146.334C62.135 145.204 68.6081 143.92 68.8825 143.864C75.1001 142.594 80.5152 138.274 83.2463 132.396C83.9535 130.873 84.936 128.191 85.148 124.738C89.7596 121.74 94.9615 118.177 100.487 114.225C117.64 101.958 133.712 89.0281 143.483 79.6324C152.536 70.9286 158.632 63.2396 158.967 53.9965C159.317 44.3641 155.652 38.7 152.518 35.6428Z" fill="white"/>
<path d="M152.518 35.6428C144.456 27.7794 132.957 29.2225 125.558 32.8471C123.392 33.9084 121.411 35.3598 119.721 37.1221C102.626 54.9565 85.6427 67.9991 73.1118 76.4948C71.0653 75.3391 68.6821 74.2979 65.9785 73.3817C58.7799 70.9409 53.2052 70.734 47.9027 72.7107C42.8412 74.5975 38.7066 78.3581 36.3316 83.0316C33.5869 86.9798 23.647 99.7949 15.0465 110.546C10.4657 116.272 9.50583 128.177 15.8102 134.326L21.0796 139.465C24.8173 143.111 30.3787 146.695 35.711 147.629C40.8938 148.537 47.1941 147.666 55.2836 146.334C62.135 145.204 68.6081 143.92 68.8825 143.864C75.1001 142.594 80.5152 138.274 83.2463 132.396C83.9535 130.873 84.936 128.191 85.148 124.738C89.7596 121.74 94.9615 118.177 100.487 114.225C117.64 101.958 133.712 89.0281 143.483 79.6324C152.536 70.9286 158.632 63.2396 158.967 53.9965C159.317 44.3641 155.652 38.7 152.518 35.6428Z" stroke="#E2E2E2" stroke-width="3" stroke-miterlimit="10"/>
</g>
<path d="M62.6329 110.894C62.6329 110.894 65.5591 110.914 67.6033 114.088C69.6475 117.263 68.8926 118.888 68.8926 118.888C68.8926 118.888 43.4665 124.08 41.7103 122.367C39.228 122.78 35.6765 119.316 35.6765 119.316L30.4071 114.176C30.4071 114.176 53.8592 84.8611 54.2712 82.9011C54.6827 80.9415 65.4602 84.6059 66.9727 86.7878C68.4842 88.9714 61.8087 97.5732 61.8087 97.5732C61.8087 97.5732 97.5624 80.0216 134.179 41.8212C134.179 41.8212 143.205 37.3988 142.824 47.8912C142.444 58.3844 69.3711 111.563 62.6329 110.894Z" fill="#003D7A"/>
<path d="M60.652 118.109C60.652 118.109 63.5781 118.129 65.6223 121.303C67.6665 124.478 66.9116 126.103 66.9116 126.103C66.9116 126.103 41.4856 131.295 39.7294 129.582C37.247 129.995 33.6956 126.531 33.6956 126.531L28.4262 121.391C28.4262 121.391 51.8782 92.0761 52.2902 90.1161C52.7017 88.1565 63.4793 91.8209 64.9917 94.0027C66.5033 96.1864 59.8278 104.788 59.8278 104.788C59.8278 104.788 95.5814 87.2366 132.198 49.0362C132.198 49.0362 141.224 44.6137 140.843 55.1062C140.463 65.5994 67.3901 118.778 60.652 118.109Z" fill="#0D00FF"/>
<defs>
<filter id="filter0_d_37_64" x="7.84619" y="28.4227" width="158.644" height="129.079" filterUnits="userSpaceOnUse" color-interpolation-filters="sRGB">
<feFlood flood-opacity="0" result="BackgroundImageFix"/>
<feColorMatrix in="SourceAlpha" type="matrix" values="0 0 0 0 0 0 0 0 0 0 0 0 0 0 0 0 0 0 127 0" result="hardAlpha"/>
<feOffset dx="2" dy="4"/>
<feGaussianBlur stdDeviation="2"/>
<feComposite in2="hardAlpha" operator="out"/>
<feColorMatrix type="matrix" values="0 0 0 0 0 0 0 0 0 0 0 0 0 0 0 0 0 0 0.25 0"/>
<feBlend mode="normal" in2="BackgroundImageFix" result="effect1_dropShadow_37_64"/>
<feBlend mode="normal" in="SourceGraphic" in2="effect1_dropShadow_37_64" result="shape"/>
</filter>
</defs>
</svg>
