<svg width="43" height="43" viewBox="0 0 43 43" fill="none" xmlns="http://www.w3.org/2000/svg">
<path d="M21.7788 0.538635C10.1995 0.538635 0.778809 9.95931 0.778809 21.5386C0.778809 33.118 10.1995 42.5386 21.7788 42.5386C33.3581 42.5386 42.7788 33.118 42.7788 21.5386C42.7788 9.95931 33.3581 0.538635 21.7788 0.538635ZM21.7788 3.68864C31.6558 3.68864 39.6288 11.6617 39.6288 21.5386C39.6288 31.4156 31.6558 39.3886 21.7788 39.3886C11.9019 39.3886 3.92881 31.4156 3.92881 21.5386C3.92881 11.6617 11.9019 3.68864 21.7788 3.68864ZM20.1792 8.91608C19.7618 8.9226 19.3641 9.09451 19.0734 9.39405C18.7827 9.69359 18.6228 10.0963 18.6288 10.5136V22.0636C18.6289 22.4813 18.7949 22.8819 19.0902 23.1772L24.3402 28.4272C24.4854 28.5784 24.6592 28.699 24.8515 28.7822C25.0439 28.8653 25.2509 28.9092 25.4604 28.9114C25.67 28.9135 25.8778 28.8738 26.0718 28.7946C26.2658 28.7154 26.4421 28.5983 26.5903 28.4501C26.7384 28.3019 26.8555 28.1257 26.9348 27.9317C27.014 27.7377 27.0537 27.5298 27.0515 27.3203C27.0494 27.1107 27.0055 26.9037 26.9223 26.7114C26.8392 26.519 26.7185 26.3452 26.5674 26.2001L21.7788 21.4115V10.5136C21.7818 10.3028 21.7425 10.0936 21.6632 9.89824C21.5838 9.70291 21.4661 9.5255 21.3169 9.37652C21.1677 9.22754 20.9902 9.11002 20.7947 9.03093C20.5993 8.95184 20.39 8.91278 20.1792 8.91608Z" fill="#0D00FF"/>
</svg>
